# xmcd
# 
# Track frame offsets:
#     150
#     12826
#     26147
#     36626
#     47336
#     58553
#     69817
#     85916
#     100535
#     112746
#     124835
#     137239
#     148096
#     160950
#     172427
#     186746
#     203866
#     217918
# 
# Disc length: 3114
# 
# Revision: 2
# Processed by: cddbd v1.5.2PL0 Copyright (c) Steve Scherf et al.
# Submitted via: fre:ac v1.0.31
# 
DISCID=060c2812
DTITLE=Various Artist - Country Ballads
DYEAR=1996
DGENRE=Country
TTITLE0=lynn Anderson - Stand By Your Man
TTITLE1=Merle Haggard - The Figthin' Side Of Me
TTITLE2=Johnny Cash - Balld Of A Teenage Queen
TTITLE3=Patsy Cline - How Can I Face Tomorrow
TTITLE4=Hank Locklin - Send Me The Pillow
TTITLE5=Sammi Smith - Help Me Make It Through The Night
TTITLE6=Skeeter Davis - Desparado
TTITLE7=George Jones - A Good Year For The Roses
TTITLE8=Dolly Parton - Letter To Heaven
TTITLE9=Freddy Fender - I'm Leving It Up To You
TTITLE10=Billie Jo Spears - Misty Blue
TTITLE11=Jimmie Rodgers - Kisses Sweeter Than Wine
TTITLE12=Bobby Bare - The Year That Clayton Delaney Died
TTITLE13=Wanda Jackson - Tears Will Be The Chaser
TTITLE14=Willie Nelson - Will You Remember Mine
TTITLE15=Razzy Bailey - (Let Me Be Your) Teddy Bear
TTITLE16=Kenny Rogers - I'm Gonna Sing You A Sad Song Suzy
TTITLE17=Glenn Barber - Cry, Cry Darlin'
EXTD=
EXTT0=
EXTT1=
EXTT2=
EXTT3=
EXTT4=
EXTT5=
EXTT6=
EXTT7=
EXTT8=
EXTT9=
EXTT10=
EXTT11=
EXTT12=
EXTT13=
EXTT14=
EXTT15=
EXTT16=
EXTT17=
PLAYORDER=
